<?xml version="1.0" standalone="yes"?>
<svg width="1200" height="620">
<path style="fill:#6c4fbb; stroke:none;" d="M0 0L0 620L1200 620L1200 0L0 0z"/>
<path style="fill:#d0c7e9; stroke:none;" d="M292 210L292 211L296 211L292 210z"/>
<path style="fill:#ffffff; stroke:none;" d="M278 237C272.397 236.884 264.004 233.375 259.04 236.607C248.121 243.716 239.659 261.602 231.873 272C229.316 275.416 225.353 283.439 220.91 284.462C217.665 285.209 213.589 281.556 211 280C204.639 276.176 190.822 264.049 183.148 265.423C177.774 266.385 182.503 278.908 182 283C175.152 279.823 155.419 278.215 164.603 291.957C167.594 296.432 173.573 298.893 178 301.681C185.431 306.362 193.959 313.208 203 313.906C211.69 314.576 216.323 309.289 224 307.099C227.937 305.975 231.936 308.362 236 307.782C239.875 307.23 243.117 303.835 247 303.836C254.743 303.839 263.311 317.464 270.91 314.748C275.919 312.957 280.317 304.152 283.29 300C292.216 287.537 301.453 275.283 310.626 263C313.525 259.118 321.305 251.526 319.353 246.148C317.764 241.77 308.835 242.165 305 242C306.827 234.973 321.699 223.412 319.288 216.314C317.85 212.08 307.573 212.217 304 211.834C290.549 210.393 274.323 221.331 278 237z"/>
<path style="fill:#c2b6e3; stroke:none;" d="M314 213L314 214L317 214L314 213z"/>
<path style="fill:#b8aade; stroke:none;" d="M320.333 216.667L320.667 217.333L320.333 216.667z"/>
<path style="fill:#ae9fd9; stroke:none;" d="M276 231L276 234L277 234L276 231z"/>
<path style="fill:#bfb3e1; stroke:none;" d="M271 236L271 237L274 237L271 236z"/>
<path style="fill:#a796d6; stroke:none;" d="M305 241L305 242L308 242L305 241z"/>
<path style="fill:#9f8cd2; stroke:none;" d="M310 242L310 243L314 243L310 242z"/>
<path style="fill:#b5a6dc; stroke:none;" d="M320 246L320 249L321 249L320 246z"/>
<path style="fill:#a391d4; stroke:none;" d="M388 262L388 263L426 263C415.964 258.789 398.911 262 388 262z"/>
<path style="fill:#ffffff; stroke:none;" d="M388 263L388 357L407 357L407 318C428 318.002 426.65 344.38 440.39 355.397C445.214 359.265 457.081 357 463 357C458.7 343.505 447.322 328.456 439 317C458.403 309.8 466.996 280.177 446.985 267.931C431.315 258.34 405.621 263 388 263z"/>
<path style="fill:#bfb2e1; stroke:none;" d="M433 263L433 264L436 264L433 263z"/>
<path style="fill:#a998d7; stroke:none;" d="M438.667 264.333L439.333 264.667L438.667 264.333z"/>
<path style="fill:#d2c9ea; stroke:none;" d="M179 267L179 271L180 271L179 267M757 270L757 271L775 271L757 270z"/>
<path style="fill:#cfc5e8; stroke:none;" d="M1014 270L1014 271L1031 271L1031 288L1032 288L1032 270L1014 270z"/>
<path style="fill:#ffffff; stroke:none;" d="M757 271L757 288L745 288L745 303L757 303C757 315.877 751.352 346.599 764.093 354.467C771.234 358.876 781.963 357 790 357L790 342C785.893 342 780.508 342.872 777.318 339.682C771.113 333.477 775 311.407 775 303L790 303L790 288L775 288L775 271L757 271z"/>
<path style="fill:#8b74c9; stroke:none;" d="M1013 271L1013 287L1014 287L1013 271z"/>
<path style="fill:#ffffff; stroke:none;" d="M1014 271L1014 288L1002 288L1002 303L1014 303C1014 315.912 1008.28 346.952 1021.04 354.772C1027.99 359.033 1039.16 357 1047 357L1047 342C1030.28 342 1031 333.509 1031 319C1031 315.12 1029.59 307.614 1032.6 304.603C1035.62 301.587 1043.09 303 1047 303L1047 288L1031 288L1031 271L1014 271z"/>
<path style="fill:#aa99d7; stroke:none;" d="M182 277L182 280L183 280L182 277z"/>
<path style="fill:#9d89d1; stroke:none;" d="M169 278L169 279L173 279L169 278z"/>
<path style="fill:#b1a2db; stroke:none;" d="M407 279L407 302L408 302L407 279z"/>
<path style="fill:#6c4fbb; stroke:none;" d="M408 279L408 302C415.577 302 426.131 303.819 432.956 299.86C439.173 296.254 440.152 285.42 433.811 281.417C426.867 277.035 415.842 279 408 279z"/>
<path style="fill:#9884cf; stroke:none;" d="M162 285L162 289L163 289L162 285z"/>
<path style="fill:#937dcd; stroke:none;" d="M458 286L458 291L459 291L458 286z"/>
<path style="fill:#b0a1da; stroke:none;" d="M438 287L438 293L439 293L438 287z"/>
<path style="fill:#a695d6; stroke:none;" d="M495 287L495 288L504 288L495 287z"/>
<path style="fill:#ab9bd8; stroke:none;" d="M569 287L569 288L575 288L569 287z"/>
<path style="fill:#ae9fd9; stroke:none;" d="M611 287L611 288L629 288L611 287M653 287L653 288L675 289C671.196 284.646 658.561 287 653 287z"/>
<path style="fill:#a593d5; stroke:none;" d="M701 287L701 288L710 288L701 287z"/>
<path style="fill:#ae9ed9; stroke:none;" d="M745 287L745 288L757 288L745 287M775 287L775 288L791 288L775 287z"/>
<path style="fill:#9d89d1; stroke:none;" d="M822 287L822 288L832 288L822 287z"/>
<path style="fill:#a796d6; stroke:none;" d="M891 287L891 288L899 288L891 287z"/>
<path style="fill:#a391d4; stroke:none;" d="M960 287L960 288L970 288L960 287z"/>
<path style="fill:#ae9ed9; stroke:none;" d="M1002 287L1002 288L1014 288L1002 287M1032 287L1032 288L1047 288L1032 287z"/>
<path style="fill:#ffffff; stroke:none;" d="M491 288.518C466.141 293.829 459.205 328.795 474.519 346.91C482.465 356.31 495.356 358.815 507 356.331C531.394 351.127 540.496 318.006 525.471 299.015C517.637 289.113 503.011 285.951 491 288.518z"/>
<path style="fill:#a593d5; stroke:none;" d="M507.667 288.333L508.333 288.667L507.667 288.333z"/>
<path style="fill:#ffffff; stroke:none;" d="M603 332L585 332C581.832 341.291 570.305 344.281 563.225 336.867C553.963 327.167 557.747 303.001 574 304.12C581.209 304.617 581.962 310.863 587.39 313.397C591.522 315.326 598.502 314 603 314C602.675 277.631 543.887 280.418 541.093 315C540.059 327.811 541.209 342.511 552.09 351.073C570.554 365.6 599.868 355.239 603 332z"/>
<path style="fill:#ebe7f5; stroke:none;" d="M611 288L611 357L612 357L612 310L611 288z"/>
<path style="fill:#ffffff; stroke:none;" d="M612 288L612 357L629 357C629 346.398 626.363 334.869 636 328C638.728 335.196 648.753 353.452 656.093 356.397C661.816 358.692 670.879 357 677 357L656.025 326L650.117 314L674 288L652 289.028L629 310L629 288L612 288M735 335C730.114 335 723.924 333.973 719.209 335.317C715.624 336.339 713.701 340.178 709.996 341.347C700.493 344.347 693.043 336.5 691 328L737 328C737 316.273 737.124 304.098 727.815 295.329C706.079 274.854 675.602 294.524 673.17 320C672.108 331.119 675.679 344.349 685.015 351.211C702.094 363.767 730.448 356.761 735 335z"/>
<path style="fill:#b0a0da; stroke:none;" d="M713.667 288.333L714.333 288.667L713.667 288.333z"/>
<path style="fill:#c7bce5; stroke:none;" d="M790 288L790 303L775 303L775 304L791 304L790 288z"/>
<path style="fill:#b0a1da; stroke:none;" d="M817 288L817 289L820 289L817 288z"/>
<path style="fill:#ffffff; stroke:none;" d="M799 335C799.216 360.81 845.219 366.713 854.517 344C855.571 341.424 855.927 338.763 855.985 336C856.294 321.189 842.605 318.206 831 314.333C827.504 313.167 821.809 312.094 819.752 308.664C817.424 304.782 822.958 302.31 826 302.199C831.117 302.012 834.87 304.578 837 309L854 309C853.923 282.194 804.168 279.412 800.214 305C797.698 321.284 812.708 325.944 825 330.001C828.27 331.08 839.554 333.403 837.079 338.86C831.632 350.87 818.963 336.822 813.791 335.318C809.381 334.036 803.574 335 799 335z"/>
<path style="fill:#c0b4e2; stroke:none;" d="M835 288L835 289L838 289L835 288z"/>
<path style="fill:#ffffff; stroke:none;" d="M924 335C919.363 335 913.661 334.097 909.17 335.317C905.266 336.378 902.95 340.307 899 341.486C889.509 344.32 882.306 336.674 881 328L926 328C926 314.921 926.49 302.408 914.996 293.532C894.686 277.849 864.139 293.096 863.039 318C862.429 331.808 864.934 346.001 878 353.468C894.141 362.692 922.171 355.791 924 335z"/>
<path style="fill:#b0a1da; stroke:none;" d="M955.667 288.333L956.333 288.667L955.667 288.333z"/>
<path style="fill:#ffffff; stroke:none;" d="M937 309C941.695 309 948.319 310.201 952.714 308.397C957.626 306.382 959.974 301.854 966 302.416C970.105 302.799 978.525 306.566 973.663 311.566C963.521 321.996 942.821 312.141 935.995 330.001C931.373 342.094 939.293 355.227 952 356.815C962.523 358.13 970.066 354.416 978 348C979.261 359.317 990.327 357 999 357L999 343C991.286 340.658 994 328.527 994 322C994 311.413 995.101 298.884 984.91 292.214C969.589 282.185 937.512 287.236 937 309z"/>
<path style="fill:#ab9ad8; stroke:none;" d="M974.667 288.333L975.333 288.667L974.667 288.333z"/>
<path style="fill:#927dcc; stroke:none;" d="M1001 288L1001 303L1002 303L1001 288z"/>
<path style="fill:#a593d5; stroke:none;" d="M1047 288L1047 303L1048 303L1047 288z"/>
<path style="fill:#8b74c9; stroke:none;" d="M822 302L822 303L830 303L822 302z"/>
<path style="fill:#ccc2e7; stroke:none;" d="M962 302L962 303L968 303L962 302z"/>
<path style="fill:#9b87d0; stroke:none;" d="M245 303L245 304L249 304L245 303z"/>
<path style="fill:#937dcd; stroke:none;" d="M701 303L701 304L709 304L701 303z"/>
<path style="fill:#c7bce5; stroke:none;" d="M745 303L745 304L757 304L745 303z"/>
<path style="fill:#d1c8e9; stroke:none;" d="M854 303L854 309L855 309L854 303z"/>
<path style="fill:#6c4fbb; stroke:none;" d="M881 314L908 314C905.86 298.033 885.634 301.57 881 314z"/>
<path style="fill:#c7bce5; stroke:none;" d="M1002 303L1002 304L1014 304L1002 303M1032 303L1032 304L1047 304L1032 303z"/>
<path style="fill:#6c4fbb; stroke:none;" d="M494 304.742C476.155 311.572 484.514 349.026 505.985 339.772C523.28 332.317 514.723 296.812 494 304.742M692 314L719 314C716.235 300.307 694.765 300.307 692 314z"/>
<path style="fill:#8b74c9; stroke:none;" d="M1013 304L1013 342L1014 342C1014 331.089 1017.21 314.036 1013 304z"/>
<path style="fill:#cfc5e8; stroke:none;" d="M1031 304L1031 337L1032 337L1031 304z"/>
<path style="fill:#b7a9dd; stroke:none;" d="M818 305L818 309L819 309L818 305z"/>
<path style="fill:#a796d6; stroke:none;" d="M954.333 307.667L954.667 308.333L954.333 307.667z"/>
<path style="fill:#c4b9e4; stroke:none;" d="M232 308L232 309L237 309L232 308z"/>
<path style="fill:#ffffff; stroke:none;" d="M179 309C179.2 315.75 184.306 319.722 185.211 326C186.013 331.56 181.911 336.576 182.252 341.996C182.636 348.085 194.155 355.466 200 354.577C206.794 353.544 210.232 344.905 217 343.321C222.358 342.067 226.691 344.54 232 342L232 340C217.021 330.088 196.491 313.012 179 309z"/>
<path style="fill:#a897d7; stroke:none;" d="M837 309L837 310L855 310L837 309z"/>
<path style="fill:#d2c9ea; stroke:none;" d="M937 309L937 310L954 310L937 309z"/>
<path style="fill:#b9abde; stroke:none;" d="M863.333 312.667L863.667 313.333L863.333 312.667z"/>
<path style="fill:#dbd4ee; stroke:none;" d="M908 313L881 314L881 315L902 315L908 313z"/>
<path style="fill:#bcafe0; stroke:none;" d="M970.667 313.333L971.333 313.667L970.667 313.333z"/>
<path style="fill:#cdc3e8; stroke:none;" d="M673 314L673 318L674 318L673 314z"/>
<path style="fill:#dbd4ee; stroke:none;" d="M692 314L692 315L719 315L692 314z"/>
<path style="fill:#d3cbeb; stroke:none;" d="M926 314L926 328L927 328L926 314z"/>
<path style="fill:#a695d6; stroke:none;" d="M964.667 314.333L965.333 314.667L964.667 314.333z"/>
<path style="fill:#dcd5ef; stroke:none;" d="M532 315L532 327L533 327L532 315z"/>
<path style="fill:#ae9ed9; stroke:none;" d="M959 315L959 316L962 316L959 315z"/>
<path style="fill:#c7bce5; stroke:none;" d="M466 316L466 327L467 327L466 316z"/>
<path style="fill:#c3b7e3; stroke:none;" d="M540 316L540 330L541 330L540 316z"/>
<path style="fill:#9884cf; stroke:none;" d="M484 317L484 327L485 327L484 317z"/>
<path style="fill:#9a86d0; stroke:none;" d="M558 317L558 327L559 327L558 317z"/>
<path style="fill:#8e78cb; stroke:none;" d="M737 317L737 327L738 327L737 317z"/>
<path style="fill:#a593d5; stroke:none;" d="M862 317L862 327L863 327L862 317z"/>
<path style="fill:#b1a2db; stroke:none;" d="M407 318L407 357L408 357L408 319L418 319L407 318z"/>
<path style="fill:#ae9fd9; stroke:none;" d="M971.667 326.333L972.333 326.667L971.667 326.333z"/>
<path style="fill:#6c4fbb; stroke:none;" d="M976 326C972.301 326.498 968.691 327.43 965 328.003C962.945 328.322 960.937 328.677 959.005 329.483C954.11 331.524 950.274 338.192 956.228 341.821C962.307 345.526 971.46 340.681 974.231 334.985C975.608 332.155 975.865 329.086 976 326z"/>
<path style="fill:#b2a3db; stroke:none;" d="M966 327L966 328L969 328L966 327z"/>
<path style="fill:#c0b3e1; stroke:none;" d="M184.333 331.667L184.667 332.333L184.333 331.667z"/>
<path style="fill:#b9acdf; stroke:none;" d="M467 331L467 334L468 334L467 331z"/>
<path style="fill:#b6a8dd; stroke:none;" d="M531.333 331.667L531.667 332.333L531.333 331.667z"/>
<path style="fill:#e2dcf1; stroke:none;" d="M586 331L586 332L603 332L586 331z"/>
<path style="fill:#b2a3db; stroke:none;" d="M863 331L863 334L864 334L863 331z"/>
<path style="fill:#b6a8dd; stroke:none;" d="M541.333 332.667L541.667 333.333L541.333 332.667z"/>
<path style="fill:#a391d4; stroke:none;" d="M856 332L856 339L857 339L856 332z"/>
<path style="fill:#ad9cd9; stroke:none;" d="M934 333L934 342L935 342L934 333z"/>
<path style="fill:#c9bfe6; stroke:none;" d="M718 334L718 335L735 335L718 334z"/>
<path style="fill:#dcd6ef; stroke:none;" d="M798 334L798 338L799 338L799 335L816 335L798 334z"/>
<path style="fill:#c9bfe6; stroke:none;" d="M907 334L907 335L925 336C921.587 332.094 911.93 334 907 334z"/>
<path style="fill:#c5bae4; stroke:none;" d="M183.333 335.667L183.667 336.333L183.333 335.667z"/>
<path style="fill:#ae9ed9; stroke:none;" d="M602 335L602 338L603 338L602 335z"/>
<path style="fill:#b7a9dd; stroke:none;" d="M838 336L838 339L839 339L838 336z"/>
<path style="fill:#bfb3e1; stroke:none;" d="M232.333 340.667L232.667 341.333L232.333 340.667z"/>
<path style="fill:#c8bee5; stroke:none;" d="M577.667 340.333L578.333 340.667L577.667 340.333z"/>
<path style="fill:#bdb1e0; stroke:none;" d="M709.667 341.333L710.333 341.667L709.667 341.333z"/>
<path style="fill:#ae9ed9; stroke:none;" d="M778 341L778 342L791 342L778 341z"/>
<path style="fill:#ac9cd8; stroke:none;" d="M898 341L898 342L901 342L898 341z"/>
<path style="fill:#ae9ed9; stroke:none;" d="M1035 341L1035 342L1047 342L1035 341z"/>
<path style="fill:#d0c7e9; stroke:none;" d="M790 342L790 357L791 357L790 342z"/>
<path style="fill:#917bcc; stroke:none;" d="M822 342L822 343L832 343L822 342z"/>
<path style="fill:#a593d5; stroke:none;" d="M1047 342L1047 357L1048 357L1047 342z"/>
<path style="fill:#a897d7; stroke:none;" d="M218 343L218 344L224 344L218 343z"/>
<path style="fill:#b0a1da; stroke:none;" d="M757.333 343.667L757.667 344.333L757.333 343.667z"/>
<path style="fill:#b6a8dd; stroke:none;" d="M999 343L999 357L1000 357L999 343z"/>
<path style="fill:#bbaedf; stroke:none;" d="M1014 344L1014 347L1015 347L1014 344z"/>
<path style="fill:#c1b5e2; stroke:none;" d="M976 348L978 350L978 348L976 348z"/>
<path style="fill:#a796d6; stroke:none;" d="M177 349L177 350L181 350L177 349z"/>
<path style="fill:#ffffff; stroke:none;" d="M154 409C159.711 407.444 163.844 403.057 168 399C176.805 390.405 200.423 376.848 196.678 362.043C194.513 353.482 177.987 347.139 171.329 353.394C163.962 360.316 162.462 375.614 159.92 385C157.795 392.846 154.664 400.874 154 409z"/>
<path style="fill:#a998d7; stroke:none;" d="M199.667 355.333L200.333 355.667L199.667 355.333z"/>
<path style="fill:#ae9ed9; stroke:none;" d="M506.667 356.333L507.333 356.667L506.667 356.333z"/>
<path style="fill:#b6a8dd; stroke:none;" d="M563.667 356.333L564.333 356.667L563.667 356.333z"/>
<path style="fill:#b2a3db; stroke:none;" d="M712.667 356.333L713.333 356.667L712.667 356.333z"/>
<path style="fill:#9f8cd2; stroke:none;" d="M495 357L495 358L504 358L495 357M568 357L568 358L574 358L568 357z"/>
<path style="fill:#a18ed3; stroke:none;" d="M611 357L611 358L629 358L611 357M655 357L655 358L677 358L655 357z"/>
<path style="fill:#9783cf; stroke:none;" d="M701 357L701 358L708 358L701 357z"/>
<path style="fill:#a18ed3; stroke:none;" d="M773 357L773 358L791 358L773 357z"/>
<path style="fill:#9480cd; stroke:none;" d="M822 357L822 358L832 358L822 357z"/>
<path style="fill:#9f8cd2; stroke:none;" d="M891 357L891 358L897 358L891 357z"/>
<path style="fill:#ab9bd8; stroke:none;" d="M984 357L984 358L999 358L984 357z"/>
<path style="fill:#a18ed3; stroke:none;" d="M1030 357L1030 358L1047 358L1030 357z"/>
<path style="fill:#c8bee5; stroke:none;" d="M166.333 361.667L166.667 362.333L166.333 361.667z"/>
<path style="fill:#9b88d1; stroke:none;" d="M197 362L197 367L198 367L197 362z"/>
<path style="fill:#bdb1e0; stroke:none;" d="M196.333 368.667L196.667 369.333L196.333 368.667z"/>
<path style="fill:#c3b7e3; stroke:none;" d="M161.333 379.667L161.667 380.333L161.333 379.667z"/>
<path style="fill:#c8bde5; stroke:none;" d="M158.333 390.667L158.667 391.333L158.333 390.667z"/>
</svg>
